<?xml version="1.0" standalone="no"?>
<!DOCTYPE svg PUBLIC "-//W3C//DTD SVG 20010904//EN"
 "http://www.w3.org/TR/2001/REC-SVG-20010904/DTD/svg10.dtd">
<svg version="1.0" xmlns="http://www.w3.org/2000/svg"
 width="640.000000pt" height="640.000000pt" viewBox="0 0 640.000000 640.000000"
 preserveAspectRatio="xMidYMid meet">
<metadata>
Created by potrace 1.11, written by Peter Selinger 2001-2013
</metadata>
<g transform="translate(0.000000,640.000000) scale(0.100000,-0.100000)"
fill="#000000" stroke="none">
<path d="M5342 5838 c-5 -7 -19 -32 -31 -55 -12 -24 -23 -43 -26 -43 -2 0 -16
20 -31 45 -14 25 -28 44 -30 42 -2 -1 3 -25 11 -52 8 -26 13 -50 11 -52 -2 -3
-23 5 -46 17 -23 12 -44 19 -46 17 -3 -3 14 -21 37 -41 44 -37 40 -42 -23 -27
-21 5 -38 7 -38 5 0 -2 17 -12 38 -23 20 -11 34 -20 30 -21 -4 0 -185 -54
-403 -120 -217 -66 -400 -120 -405 -120 -6 0 -72 30 -147 66 -375 181 -734
264 -1139 264 -167 1 -237 -5 -403 -31 -589 -92 -1113 -381 -1532 -844 -171
-189 -385 -546 -464 -772 -16 -46 -32 -83 -35 -83 -17 0 -160 70 -160 78 0 5
26 65 59 133 91 192 121 260 121 269 0 9 -69 35 -74 28 -13 -14 -216 -463
-214 -470 2 -6 55 -34 118 -63 63 -29 116 -57 118 -63 1 -5 -10 -63 -27 -128
-26 -104 -48 -224 -65 -359 -3 -22 -8 -111 -11 -198 l-6 -157 -43 -93 c-23
-50 -55 -117 -69 -148 -58 -121 -25 -194 118 -260 39 -18 71 -33 73 -35 2 -1
10 -28 18 -61 28 -106 96 -286 159 -418 57 -120 176 -327 212 -367 14 -15 11
-23 -21 -77 -90 -147 -156 -320 -197 -513 -18 -82 -23 -138 -23 -273 -1 -147
9 -328 19 -345 1 -3 6 -39 9 -80 4 -41 8 -76 10 -77 1 -1 40 73 86 165 68 136
183 329 209 352 3 3 25 30 48 60 23 30 71 86 107 125 50 52 66 77 66 99 0 23
3 27 18 21 49 -19 67 -16 96 14 l29 30 98 -75 c343 -260 720 -420 1165 -495
110 -19 168 -22 389 -22 286 0 394 12 637 74 127 31 344 107 419 145 26 13 50
19 55 14 5 -5 129 -65 275 -134 175 -83 277 -126 299 -126 19 0 53 10 78 21
42 21 47 28 124 188 44 91 83 182 86 203 11 89 -26 134 -166 200 l-104 48 111
111 110 111 36 -12 c20 -7 38 -17 41 -24 2 -6 -7 -35 -21 -64 -14 -28 -25 -54
-25 -57 0 -3 32 -20 71 -39 l71 -34 40 85 c33 70 39 91 34 125 -8 57 -58 127
-92 128 -5 0 -18 6 -28 13 -17 13 -14 19 44 98 62 82 69 88 101 75 12 -5 25
14 59 86 24 51 66 140 93 198 89 189 89 188 69 199 -15 8 -14 16 12 88 55 152
98 346 132 588 4 28 7 142 7 255 0 164 -4 238 -23 367 -13 89 -22 164 -19 166
2 2 92 36 199 77 179 66 304 123 450 202 75 41 91 58 96 104 9 73 -36 119
-126 129 -30 4 -84 10 -120 15 -36 5 -92 12 -124 16 -33 3 -67 8 -75 9 -9 2
-25 4 -36 4 -15 1 -25 12 -34 39 -34 95 -141 244 -233 324 -154 133 -288 196
-519 243 l-84 17 -80 82 c-44 45 -105 105 -135 132 -67 61 -281 222 -333 249
-20 11 -37 22 -37 25 0 5 678 213 771 237 22 6 22 5 -6 -21 l-30 -27 43 21
c24 12 46 19 49 16 3 -3 -2 -23 -11 -46 -20 -51 -14 -51 17 0 l24 41 27 -41
c31 -47 39 -50 31 -12 -18 83 -20 81 25 37 l42 -40 -21 35 c-24 40 -27 54 -8
47 6 -3 30 -13 52 -22 l40 -16 -34 28 c-19 15 -42 33 -50 40 -13 10 -9 13 24
13 22 1 49 5 60 10 17 7 14 9 -15 10 -19 2 -47 5 -63 9 l-28 6 32 38 c17 21
29 40 27 43 -3 2 -26 -7 -51 -22 -51 -28 -51 -29 -38 49 9 51 8 53 -7 35z
m-548 -4768 l127 -60 -15 -29 c-8 -15 -38 -76 -65 -134 l-49 -107 -94 44 c-51
24 -144 68 -206 98 l-114 54 84 51 c45 29 110 72 143 97 33 25 61 46 61 46 1
0 59 -27 128 -60z"/>
<path d="M5620 2127 c-13 -29 -46 -99 -73 -157 -27 -58 -63 -134 -79 -170 -17
-36 -34 -73 -39 -82 -7 -14 -3 -21 20 -33 17 -8 35 -15 41 -15 9 0 43 67 140
279 l34 73 53 -233 c29 -129 57 -241 61 -249 5 -8 23 -20 41 -27 l31 -13 70
146 c39 81 70 148 70 150 0 2 18 40 40 85 22 45 40 87 40 94 0 10 -68 41 -74
33 -2 -1 -20 -40 -40 -84 -97 -219 -124 -269 -130 -243 -3 13 -28 122 -55 243
-28 120 -51 220 -53 222 -2 2 -20 10 -39 18 l-36 15 -23 -52z"/>
</g>
</svg>
